{
  "accessors": [
    {
      "bufferView": 0,
      "componentType": 5125,
      "count": 138,
      "type": "SCALAR"
    },
    {
      "bufferView": 1,
      "componentType": 5126,
      "count": 50,
      "max": [
        0.0948272943496704,
        -0.225027024745941,
        0.174926489591599
      ],
      "min": [
        -0.0948277711868286,
        -0.354982495307922,
        -0.0147285163402557
      ],
      "type": "VEC3"
    },
    {
      "bufferView": 2,
      "componentType": 5126,
      "count": 50,
      "type": "VEC3"
    },
    {
      "bufferView": 3,
      "componentType": 5126,
      "count": 50,
      "type": "VEC4"
    },
    {
      "bufferView": 4,
      "componentType": 5126,
      "count": 50,
      "type": "VEC2"
    },
    {
      "bufferView": 5,
      "componentType": 5125,
      "count": 324,
      "type": "SCALAR"
    },
    {
      "bufferView": 6,
      "componentType": 5126,
      "count": 96,
      "max": [
        0.682568848133087,
        1.93705260753632,
        0.682568848133087
      ],
      "min": [
        -0.682568848133087,
        -0.682568788528442,
        -0.682568848133087
      ],
      "type": "VEC3"
    },
    {
      "bufferView": 7,
      "componentType": 5126,
      "count": 96,
      "type": "VEC3"
    },
    {
      "bufferView": 8,
      "componentType": 5126,
      "count": 96,
      "type": "VEC4"
    },
    {
      "bufferView": 9,
      "componentType": 5126,
      "count": 96,
      "type": "VEC2"
    },
    {
      "bufferView": 10,
      "componentType": 5125,
      "count": 618,
      "type": "SCALAR"
    },
    {
      "bufferView": 11,
      "componentType": 5126,
      "count": 214,
      "max": [
        0.361498773097992,
        0.112921893596649,
        0.361498832702637
      ],
      "min": [
        -0.361498832702637,
        -0.0825984477996826,
        -0.361498862504959
      ],
      "type": "VEC3"
    },
    {
      "bufferView": 12,
      "componentType": 5126,
      "count": 214,
      "type": "VEC3"
    },
    {
      "bufferView": 13,
      "componentType": 5126,
      "count": 214,
      "type": "VEC4"
    },
    {
      "bufferView": 14,
      "componentType": 5126,
      "count": 214,
      "type": "VEC2"
    },
    {
      "bufferView": 15,
      "componentType": 5125,
      "count": 618,
      "type": "SCALAR"
    },
    {
      "bufferView": 16,
      "componentType": 5126,
      "count": 214,
      "max": [
        0.505497217178345,
        0.145824015140533,
        0.50549727678299
      ],
      "min": [
        -0.505497217178345,
        -0.115500420331955,
        -0.50549727678299
      ],
      "type": "VEC3"
    },
    {
      "bufferView": 17,
      "componentType": 5126,
      "count": 214,
      "type": "VEC3"
    },
    {
      "bufferView": 18,
      "componentType": 5126,
      "count": 214,
      "type": "VEC4"
    },
    {
      "bufferView": 19,
      "componentType": 5126,
      "count": 214,
      "type": "VEC2"
    }
  ],
  "asset": {
    "generator": "Adobe Substance 3D Painter 12.1.1",
    "version": "2.0"
  },
  "bufferViews": [
    {
      "buffer": 0,
      "byteLength": 552,
      "target": 34963
    },
    {
      "buffer": 0,
      "byteLength": 600,
      "byteOffset": 552,
      "target": 34962
    },
    {
      "buffer": 0,
      "byteLength": 600,
      "byteOffset": 1152,
      "target": 34962
    },
    {
      "buffer": 0,
      "byteLength": 800,
      "byteOffset": 1752,
      "target": 34962
    },
    {
      "buffer": 0,
      "byteLength": 400,
      "byteOffset": 2552,
      "target": 34962
    },
    {
      "buffer": 0,
      "byteLength": 1296,
      "byteOffset": 2952,
      "target": 34963
    },
    {
      "buffer": 0,
      "byteLength": 1152,
      "byteOffset": 4248,
      "target": 34962
    },
    {
      "buffer": 0,
      "byteLength": 1152,
      "byteOffset": 5400,
      "target": 34962
    },
    {
      "buffer": 0,
      "byteLength": 1536,
      "byteOffset": 6552,
      "target": 34962
    },
    {
      "buffer": 0,
      "byteLength": 768,
      "byteOffset": 8088,
      "target": 34962
    },
    {
      "buffer": 0,
      "byteLength": 2472,
      "byteOffset": 8856,
      "target": 34963
    },
    {
      "buffer": 0,
      "byteLength": 2568,
      "byteOffset": 11328,
      "target": 34962
    },
    {
      "buffer": 0,
      "byteLength": 2568,
      "byteOffset": 13896,
      "target": 34962
    },
    {
      "buffer": 0,
      "byteLength": 3424,
      "byteOffset": 16464,
      "target": 34962
    },
    {
      "buffer": 0,
      "byteLength": 1712,
      "byteOffset": 19888,
      "target": 34962
    },
    {
      "buffer": 0,
      "byteLength": 2472,
      "byteOffset": 21600,
      "target": 34963
    },
    {
      "buffer": 0,
      "byteLength": 2568,
      "byteOffset": 24072,
      "target": 34962
    },
    {
      "buffer": 0,
      "byteLength": 2568,
      "byteOffset": 26640,
      "target": 34962
    },
    {
      "buffer": 0,
      "byteLength": 3424,
      "byteOffset": 29208,
      "target": 34962
    },
    {
      "buffer": 0,
      "byteLength": 1712,
      "byteOffset": 32632,
      "target": 34962
    }
  ],
  "buffers": [
    {
      "byteLength": 34344,
      "uri": "speaker_sp.bin"
    }
  ],
  "images": [
    {
      "uri": "DefaultMaterial_baseColor.png"
    },
    {
      "uri": "DefaultMaterial_occlusionRoughnessMetallic.png"
    },
    {
      "uri": "DefaultMaterial_normal.png"
    },
    {
      "uri": "Material_baseColor.png"
    },
    {
      "uri": "Material_occlusionRoughnessMetallic.png"
    },
    {
      "uri": "Material_normal.png"
    }
  ],
  "materials": [
    {
      "alphaMode": "OPAQUE",
      "name": "DefaultMaterial",
      "normalTexture": {
        "index": 2
      },
      "occlusionTexture": {
        "index": 1
      },
      "pbrMetallicRoughness": {
        "baseColorTexture": {
          "index": 0
        },
        "metallicRoughnessTexture": {
          "index": 1
        }
      }
    },
    {
      "alphaMode": "OPAQUE",
      "doubleSided": true,
      "name": "Material",
      "normalTexture": {
        "index": 5
      },
      "occlusionTexture": {
        "index": 4
      },
      "pbrMetallicRoughness": {
        "baseColorTexture": {
          "index": 3
        },
        "metallicRoughnessTexture": {
          "index": 4
        }
      }
    }
  ],
  "meshes": [
    {
      "name": "Cylinder",
      "primitives": [
        {
          "attributes": {
            "NORMAL": 2,
            "POSITION": 1,
            "TANGENT": 3,
            "TEXCOORD_0": 4
          },
          "indices": 0,
          "material": 0,
          "mode": 4
        }
      ]
    },
    {
      "name": "Cube.007",
      "primitives": [
        {
          "attributes": {
            "NORMAL": 7,
            "POSITION": 6,
            "TANGENT": 8,
            "TEXCOORD_0": 9
          },
          "indices": 5,
          "material": 1,
          "mode": 4
        }
      ]
    },
    {
      "name": "Cylinder.007",
      "primitives": [
        {
          "attributes": {
            "NORMAL": 12,
            "POSITION": 11,
            "TANGENT": 13,
            "TEXCOORD_0": 14
          },
          "indices": 10,
          "material": 1,
          "mode": 4
        }
      ]
    },
    {
      "name": "Cylinder.008",
      "primitives": [
        {
          "attributes": {
            "NORMAL": 17,
            "POSITION": 16,
            "TANGENT": 18,
            "TEXCOORD_0": 19
          },
          "indices": 15,
          "material": 1,
          "mode": 4
        }
      ]
    }
  ],
  "nodes": [
    {
      "children": [
        1,
        3,
        5,
        7
      ],
      "name": "ROOT"
    },
    {
      "children": [
        2
      ],
      "name": "Cylinder",
      "rotation": [
        0.0,
        0.0,
        -0.707106828689575,
        0.707106709480286
      ],
      "scale": [
        1.00000011920929,
        1.00000011920929,
        1.0
      ],
      "translation": [
        1.35005736351013,
        2.29098606109619,
        0.479673355817795
      ]
    },
    {
      "mesh": 0,
      "name": "Cylinder"
    },
    {
      "children": [
        4
      ],
      "name": "Speaker.002",
      "rotation": [
        0.0,
        -9.88468527793884e-05,
        0.0,
        1.0
      ],
      "translation": [
        0.325137943029404,
        0.554410934448242,
        0.0768086910247803
      ]
    },
    {
      "mesh": 1,
      "name": "Cube.007"
    },
    {
      "children": [
        6
      ],
      "name": "SpeakerDiaphram1.002",
      "rotation": [
        6.9895300839562e-05,
        -6.9895300839562e-05,
        -0.707106828689575,
        0.707106709480286
      ],
      "scale": [
        1.00000011920929,
        1.00000011920929,
        1.0
      ],
      "translation": [
        0.987677216529846,
        1.79311466217041,
        0.0808762311935425
      ]
    },
    {
      "mesh": 2,
      "name": "Cylinder.007"
    },
    {
      "children": [
        8
      ],
      "name": "SpeakerDiaphram2.002",
      "rotation": [
        6.9895300839562e-05,
        -6.9895300839562e-05,
        -0.707106828689575,
        0.707106709480286
      ],
      "scale": [
        1.00000011920929,
        1.00000011920929,
        1.0
      ],
      "translation": [
        0.961452722549438,
        0.765959024429321,
        0.0808702707290649
      ]
    },
    {
      "mesh": 3,
      "name": "Cylinder.008"
    }
  ],
  "samplers": [
    {
      "magFilter": 9729,
      "minFilter": 9985,
      "wrapS": 10497,
      "wrapT": 10497
    }
  ],
  "scene": 0,
  "scenes": [
    {
      "name": "Scene",
      "nodes": [
        0
      ]
    }
  ],
  "textures": [
    {
      "sampler": 0,
      "source": 0
    },
    {
      "sampler": 0,
      "source": 1
    },
    {
      "sampler": 0,
      "source": 2
    },
    {
      "sampler": 0,
      "source": 3
    },
    {
      "sampler": 0,
      "source": 4
    },
    {
      "sampler": 0,
      "source": 5
    }
  ]
}